<svg width="38" height="38" viewBox="0 0 38 38" fill="none" xmlns="http://www.w3.org/2000/svg">
<path d="M24.6931 28.3799C25.0726 28.3799 25.4366 28.2307 25.7049 27.9651C25.9733 27.6996 26.1241 27.3394 26.1241 26.9639C26.1241 26.5883 25.9733 26.2281 25.7049 25.9626C25.4366 25.697 25.0726 25.5479 24.6931 25.5479C24.3136 25.5479 23.9497 25.697 23.6813 25.9626C23.413 26.2281 23.2622 26.5883 23.2622 26.9639C23.2622 27.3394 23.413 27.6996 23.6813 27.9651C23.9497 28.2307 24.3136 28.3799 24.6931 28.3799Z" stroke="#E5E5E5" stroke-linecap="round" stroke-linejoin="round"/>
<path d="M15.156 28.3804C15.5355 28.3804 15.8995 28.2312 16.1678 27.9656C16.4362 27.7001 16.5869 27.3399 16.5869 26.9644C16.5869 26.5888 16.4362 26.2286 16.1678 25.9631C15.8995 25.6975 15.5355 25.5483 15.156 25.5483C14.7765 25.5483 14.4126 25.6975 14.1442 25.9631C13.8759 26.2286 13.7251 26.5888 13.7251 26.9644C13.7251 27.3399 13.8759 27.7001 14.1442 27.9656C14.4126 28.2312 14.7765 28.3804 15.156 28.3804Z" stroke="#E5E5E5" stroke-linecap="round" stroke-linejoin="round"/>
<path d="M16.3465 11.3884L17.062 21.7726M21.8317 11.3884H27.0785L25.1706 21.7726H20.8778L21.8317 11.3884ZM21.8317 11.3884L20.8778 21.7726L21.8317 11.3884ZM21.8317 11.3884H16.3465H21.8317ZM20.8778 21.7726H17.062H20.8778ZM16.3465 11.3884H10.8613L12.7692 21.7726H17.062L16.3465 11.3884Z" stroke="#E5E5E5" stroke-linecap="round" stroke-linejoin="round"/>
<path d="M10.8618 11.388C10.7025 10.7584 9.9079 9.5 8 9.5" stroke="#E5E5E5" stroke-linecap="round" stroke-linejoin="round"/>
<path d="M25.1712 21.7725H11.0813C9.37949 21.7725 8.47705 22.5097 8.47705 23.6605C8.47705 24.8112 9.37949 25.5485 11.0813 25.5485H24.6942" stroke="#E5E5E5" stroke-linecap="round" stroke-linejoin="round"/>
</svg>
    