<svg width="24" height="26" viewBox="0 0 24 26" fill="none" xmlns="http://www.w3.org/2000/svg">
<path d="M1.6875 24.1914C1.6875 24.71 2.10645 25.1289 2.625 25.1289H11.0039V14.1133H1.6875V24.1914ZM12.9961 25.1289H21.375C21.8936 25.1289 22.3125 24.71 22.3125 24.1914V14.1133H12.9961V25.1289ZM22.7812 7.08203H18.457C18.8555 6.45508 19.0898 5.71094 19.0898 4.91406C19.0898 2.68457 17.2764 0.871094 15.0469 0.871094C13.834 0.871094 12.7412 1.41016 12 2.25977C11.2588 1.41016 10.166 0.871094 8.95312 0.871094C6.72363 0.871094 4.91016 2.68457 4.91016 4.91406C4.91016 5.71094 5.1416 6.45508 5.54297 7.08203H1.21875C0.700195 7.08203 0.28125 7.50098 0.28125 8.01953V12.1211H11.0039V7.08203H12.9961V12.1211H23.7188V8.01953C23.7188 7.50098 23.2998 7.08203 22.7812 7.08203ZM11.0039 6.96484H8.95312C7.82227 6.96484 6.90234 6.04492 6.90234 4.91406C6.90234 3.7832 7.82227 2.86328 8.95312 2.86328C10.084 2.86328 11.0039 3.7832 11.0039 4.91406V6.96484ZM15.0469 6.96484H12.9961V4.91406C12.9961 3.7832 13.916 2.86328 15.0469 2.86328C16.1777 2.86328 17.0977 3.7832 17.0977 4.91406C17.0977 6.04492 16.1777 6.96484 15.0469 6.96484Z" fill="#E5E5E5"/>
</svg>
