<svg width="15" height="16" viewBox="0 0 15 16" fill="none" xmlns="http://www.w3.org/2000/svg">
<path d="M0 8C0 9.47022 1.18765 10.6667 2.64706 10.6667C3.34765 10.6667 3.98118 10.3867 4.455 9.93778L9.74118 12.9813C9.72529 13.0969 9.70588 13.2124 9.70588 13.3333C9.70588 14.8036 10.8935 16 12.3529 16C13.8124 16 15 14.8036 15 13.3333C15 11.8631 13.8124 10.6667 12.3529 10.6667C11.6524 10.6667 11.0188 10.9467 10.545 11.3956L5.25882 8.35289C5.27471 8.23644 5.29412 8.12089 5.29412 8C5.29412 7.87911 5.27471 7.76356 5.25882 7.64711L10.545 4.60444C11.0188 5.05333 11.6524 5.33333 12.3529 5.33333C13.8124 5.33333 15 4.13689 15 2.66667C15 1.19644 13.8124 0 12.3529 0C10.8935 0 9.70588 1.19644 9.70588 2.66667C9.70588 2.78756 9.72529 2.90311 9.74118 3.01956L4.455 6.06222C3.96706 5.59527 3.32006 5.33442 2.64706 5.33333C1.18765 5.33333 0 6.52978 0 8Z" fill="#CCCCCC"/>
</svg>
